<?xml version="1.0" standalone="no"?><!DOCTYPE svg PUBLIC "-//W3C//DTD SVG 1.1//EN" "http://www.w3.org/Graphics/SVG/1.1/DTD/svg11.dtd"><svg t="1557405966724" class="icon" style="" viewBox="0 0 1024 1024" version="1.1" xmlns="http://www.w3.org/2000/svg" p-id="1304" xmlns:xlink="http://www.w3.org/1999/xlink" width="14" height="14"><defs><style type="text/css"></style></defs><path d="M599.13 0.476L33.55 109.306a20.778 20.778 0 0 0-16.492 20.42v764.308a20.778 20.778 0 0 0 16.372 20.48l565.58 108.83a20.837 20.837 0 0 0 3.81 0.654 19.29 19.29 0 0 0 12.622-4.465 21.313 21.313 0 0 0 7.56-16.015V20.361a21.313 21.313 0 0 0-7.56-16.074 19.23 19.23 0 0 0-16.313-3.81z m-206.11 696.08l-46.14-83.348c-10.597-18.575-20.241-37.864-32.148-59.951h-2.203c-10.538 21.67-20.004 40.305-29.767 58.344l-43.937 76.323-87.278-5 115.557-175.985L158.454 342.8l91.147-5.953 41.317 70.608c9.466 16.55 18.337 33.697 30.541 55.784h2.798c9.824-22.683 18.159-40.543 27.03-58.404l38.935-77.395 86.683-5.953-108.592 188.249L483.93 701.915zM966.519 122.76H663.487v143.36h40.364v40.96h-40.364v102.4h40.364v40.96h-40.364V552.9h40.364v40.96h-40.364v122.939h40.364v40.96h-40.364v143.419h302.972a40.781 40.781 0 0 0 40.424-40.96V163.72a40.781 40.781 0 0 0-40.364-40.96zM905.912 757.7H744.275v-40.96h161.637z m0-163.9H744.275v-40.9h161.637z m0-143.418H744.275v-40.9h161.637z m0-143.42H744.275v-40.84h161.637z" fill="#bfbfbf" p-id="1305"></path></svg>