<?xml version="1.0" standalone="no"?><!DOCTYPE svg PUBLIC "-//W3C//DTD SVG 1.1//EN" "http://www.w3.org/Graphics/SVG/1.1/DTD/svg11.dtd"><svg t="1549858637604" class="icon" style="" viewBox="0 0 1024 1024" version="1.1" xmlns="http://www.w3.org/2000/svg" p-id="17892" xmlns:xlink="http://www.w3.org/1999/xlink" width="48" height="48"><defs><style type="text/css"></style></defs><path d="M149.32992 167.23968A28.16 28.16 0 0 0 128 194.56v345.4464a347.4432 347.4432 0 0 0 192.06144 310.76864l181.90336 90.95168a28.16 28.16 0 0 0 25.1904 0l181.90336-90.95168A347.4432 347.4432 0 0 0 901.12 540.01152V194.56a28.16 28.16 0 0 0-21.32992-27.32032l-358.4-89.6a28.16 28.16 0 0 0-13.66016 0l-358.4 89.6z m-11.17696-44.70272l358.4-89.6a74.24 74.24 0 0 1 36.01408 0l358.4 89.6A74.24 74.24 0 0 1 947.2 194.56v345.4464a393.5232 393.5232 0 0 1-217.53856 351.98464l-181.89824 90.95168a74.24 74.24 0 0 1-66.4064 0l-181.89824-90.95168A393.5232 393.5232 0 0 1 81.92 540.01152V194.56a74.24 74.24 0 0 1 56.23296-72.02304zM535.04 458.24h107.52a23.04 23.04 0 0 1 0 46.08h-107.52v107.52a23.04 23.04 0 0 1-46.08 0v-107.52h-107.52a23.04 23.04 0 1 1 0-46.08h107.52v-107.52a23.04 23.04 0 1 1 46.08 0v107.52z" fill="#cdcdcd" p-id="17893"></path></svg>